<?xml version="1.0" standalone="yes"?>
<svg xmlns="http://www.w3.org/2000/svg" width="512" height="512">
<path style="fill:#011640; stroke:none;" d="M0 0L0 512L512 512L512 0L0 0z"/>
<path style="fill:#1b4172; stroke:none;" d="M346 192L347 192C347 186.03 345.455 178.451 350 174C343.689 173.059 346 187.901 346 192M351 173L352 174L351 173M368 173L368 195C372.027 191.481 371.063 177.043 368 173z"/>
<path style="fill:#1393cb; stroke:none;" d="M348.603 175.028C346.251 176.891 347.001 181.383 347 184C346.999 186.693 346.229 191.125 348.028 193.397C350.336 196.311 364.591 196.194 367.397 193.972C369.749 192.109 368.999 187.617 369 185C369.001 182.307 369.771 177.875 367.972 175.603C365.664 172.689 351.409 172.806 348.603 175.028z"/>
<path style="fill:#1b4172; stroke:none;" d="M345 194L345 195L348 195L345 194M245 200L246 201L245 200M287 200L288 201L287 200M263 201L264 202L263 201M228 202L229 203L228 202M241.667 202.333L242.333 202.667L241.667 202.333M247 202L248 203L247 202M256 202L257 203L256 202M269 202L270 203L269 202M264 206L265 207L264 206M259 207L260 208L259 207M267 207L268 208L267 207M292 207L293 208L292 207M185 223L186 224L185 223M228 223L228 249L229 249L228 223M285 224L285 258L286 258L285 224M261 240L264 248L265 248L265 240L261 240M266 240L267 241L266 240M293 240L293 255L294 255L293 240M257 244C257.125 247.878 257.502 250.072 261 252L261 251L258 250L258 249L263 248L263 247L258 248L257 244M268 247L267 249L268 247M231 248L232 249L231 248M237.667 249.333L238.333 249.667L237.667 249.333M228 250L228 252L230 250L228 250M262 250L262 251L268 251L262 250M232 251L233 252L232 251M293 258L294 259L293 258M287 260L288 261L287 260M248 263L242 270L250 268L246 268L252 268L248 263M184 264L185 265L184 264M291.667 264.333L292.333 264.667L291.667 264.333M288.667 265.333L289.333 265.667L288.667 265.333M203 268L204 269L203 268M254 268L254 269L264 270L264 271L257 271L257 272L272 271L272 270L264 270L264 269L272 269L272 268L254 268M275 268L276 269L275 268M290 268L290 269L296 269L290 268M252 270L252 271L255 271L252 270M279 270L280 271L279 270M288.667 270.333L289.333 270.667L288.667 270.333M292 270L292 271L295 271L292 270M244 271L244 272L247 272L244 271M248.667 271.333L249.333 271.667L248.667 271.333M241 275L241 276L299 276L279 274.996L241 275M216 275L216 276L240 276L216 275M76 285L76 286L109 285C99.7274 281.109 85.8066 284.579 76 285z"/>
<path style="fill:#1393cb; stroke:none;" d="M109 284L109 285L112 285L109 284z"/>
<path style="fill:#1b4172; stroke:none;" d="M112 284L112 285L118 285L112 284z"/>
<path style="fill:#1393cb; stroke:none;" d="M118 284L118 285L161 285C149.774 280.29 130.219 284 118 284z"/>
<path style="fill:#a2b0c5; stroke:none;" d="M161 284L161 285L176 285L161 284z"/>
<path style="fill:#1393cb; stroke:none;" d="M176 284L176 285L192 285L176 284z"/>
<path style="fill:#a2b0c5; stroke:none;" d="M192 284L192 285L216 285L192 284z"/>
<path style="fill:#1393cb; stroke:none;" d="M216.667 284.333L217.333 284.667L216.667 284.333z"/>
<path style="fill:#a2b0c5; stroke:none;" d="M218 284L218 285L240 285L218 284z"/>
<path style="fill:#1393cb; stroke:none;" d="M240 284L241 285L240 284z"/>
<path style="fill:#a2b0c5; stroke:none;" d="M241 284L242 285L241 284z"/>
<path style="fill:#1393cb; stroke:none;" d="M242 284L243 285L242 284z"/>
<path style="fill:#a2b0c5; stroke:none;" d="M243 284L244 285L243 284z"/>
<path style="fill:#1393cb; stroke:none;" d="M244 284L245 285L244 284z"/>
<path style="fill:#a2b0c5; stroke:none;" d="M245 284L246 285L245 284z"/>
<path style="fill:#1393cb; stroke:none;" d="M246 284L247 285L246 284z"/>
<path style="fill:#a2b0c5; stroke:none;" d="M247 284L248 285L247 284z"/>
<path style="fill:#1393cb; stroke:none;" d="M248 284L249 285L248 284z"/>
<path style="fill:#a2b0c5; stroke:none;" d="M249 284L250 285L249 284z"/>
<path style="fill:#1393cb; stroke:none;" d="M250 284L251 285L250 284z"/>
<path style="fill:#a2b0c5; stroke:none;" d="M251 284L252 285L251 284z"/>
<path style="fill:#1393cb; stroke:none;" d="M252 284L253 285L252 284z"/>
<path style="fill:#a2b0c5; stroke:none;" d="M253 284L254 285L253 284z"/>
<path style="fill:#1393cb; stroke:none;" d="M254 284L255 285L254 284z"/>
<path style="fill:#a2b0c5; stroke:none;" d="M255 284L256 285L255 284z"/>
<path style="fill:#1393cb; stroke:none;" d="M256 284L256 285L272 285L256 284z"/>
<path style="fill:#a2b0c5; stroke:none;" d="M272 284L272 285L296 285L272 284z"/>
<path style="fill:#1393cb; stroke:none;" d="M296 284L296 285L304 285L296 284z"/>
<path style="fill:#a2b0c5; stroke:none;" d="M304 284L304 285L328 285L304 284z"/>
<path style="fill:#1393cb; stroke:none;" d="M328 284L329 285L328 284z"/>
<path style="fill:#a2b0c5; stroke:none;" d="M329 284L330 285L329 284z"/>
<path style="fill:#1393cb; stroke:none;" d="M330 284L331 285L330 284z"/>
<path style="fill:#a2b0c5; stroke:none;" d="M331 284L332 285L331 284z"/>
<path style="fill:#1393cb; stroke:none;" d="M332 284L333 285L332 284z"/>
<path style="fill:#a2b0c5; stroke:none;" d="M333 284L334 285L333 284z"/>
<path style="fill:#1393cb; stroke:none;" d="M334 284L335 285L334 284z"/>
<path style="fill:#a2b0c5; stroke:none;" d="M335 284L336 285L335 284z"/>
<path style="fill:#1393cb; stroke:none;" d="M336 284L336 285L391 285L373 284L336 284z"/>
<path style="fill:#1b4172; stroke:none;" d="M391 284L391 285L416 286C409.34 282.011 398.557 284 391 284z"/>
<path style="fill:#1393cb; stroke:none;" d="M87 285L88 286L87 285z"/>
<path style="fill:#a2b0c5; stroke:none;" d="M88 285L88 286L102 286L88 285z"/>
<path style="fill:#f1f9fc; stroke:none;" d="M102 285L102 286L396 286L369 285L310 285L102 285z"/>
<path style="fill:#a2b0c5; stroke:none;" d="M396 285L396 286L407 286L396 285z"/>
<path style="fill:#1393cb; stroke:none;" d="M407 285L408 286L407 285z"/>
<path style="fill:#1b4172; stroke:none;" d="M93 286L93 287L406 287L378 286L314 286L93 286M219 288L220 289L219 288M232 288L233 289L232 288M243.667 288.333L244.333 288.667L243.667 288.333M274.667 288.333L275.333 288.667L274.667 288.333M291 288L292 289L291 288M222 289L223 290L222 289M235 289L236 290L235 289M249 289L250 290L249 289M251 289L252 290L251 289M165 290L166 291L165 290M217.667 290.333L218.333 290.667L217.667 290.333M247 290L248 291L247 290M288 290L280 291L280 292L289 291L288 290M239 291L240 292L239 291M275 291L275 292L278 292L275 291M163 292L164 293L163 292M216 292L217 293L216 292M216 295L216 296L219 299L220 299L218 296L222 293L216 295M232 292L233 293L232 292M241.667 292.333L242.333 292.667L241.667 292.333M236 293L237 294L236 293M246.667 293.333L247.333 293.667L246.667 293.333M293.667 293.333L294.333 293.667L293.667 293.333M199 294L197 297L199 294M221 295L221 296L225 297L223 294L221 295M227 294L227 296L229 296L229 294L227 294M237 297L246 296C242.561 294.473 239.802 294.453 237 297M273 297L277 296L277 300L278 300L275 294L273 297M144 295L144 296L147 296L144 295M153 295L153 296L156 296L153 295M163 295L164 296L163 295z"/>
<path style="fill:#1393cb; stroke:none;" d="M164 295L165 296L164 295z"/>
<path style="fill:#1b4172; stroke:none;" d="M165 295L167 297L165 295M169.667 295.333L170.333 295.667L169.667 295.333M206.667 295.333L207.333 295.667L206.667 295.333z"/>
<path style="fill:#1393cb; stroke:none;" d="M222 295L223 296L222 295z"/>
<path style="fill:#1b4172; stroke:none;" d="M233 295L233 296L236 297L233 295M280 295L280 296L293 297L280 295M142 296L143 297L142 296z"/>
<path style="fill:#a2b0c5; stroke:none;" d="M143 296L144 297L143 296z"/>
<path style="fill:#f1f9fc; stroke:none;" d="M140 317L143 317C143 314.938 142.108 297.917 147.147 301.582C150.655 304.134 148.585 313.284 149 317L151 317L152 300C163.139 303.381 151.081 320.068 164 324L165 323L165 321C156.226 315.31 163.485 306.595 158.972 299.228C156.253 294.789 143.747 294.789 141.028 299.228C138.372 303.564 140 312.061 140 317z"/>
<path style="fill:#a2b0c5; stroke:none;" d="M148 296L149 297L148 296z"/>
<path style="fill:#1b4172; stroke:none;" d="M150 296L151 297L150 296z"/>
<path style="fill:#a2b0c5; stroke:none;" d="M151 296L152 297L151 296M156 296L157 297L156 296z"/>
<path style="fill:#1b4172; stroke:none;" d="M157 296L158 297L157 296z"/>
<path style="fill:#a2b0c5; stroke:none;" d="M162 296L163 297L162 296z"/>
<path style="fill:#f1f9fc; stroke:none;" d="M162 297L162 299L166 300L166 296L162 297z"/>
<path style="fill:#a2b0c5; stroke:none;" d="M168 296L169 297L168 296z"/>
<path style="fill:#f1f9fc; stroke:none;" d="M169 296L169 317L171 317L172 311L184 324L185 323L185 321C178.527 316.965 178.777 308.997 179 302L172 307L171 296L169 296z"/>
<path style="fill:#a2b0c5; stroke:none;" d="M171 296L172 297L171 296M198 296L197 312L198 312L198 296z"/>
<path style="fill:#f1f9fc; stroke:none;" d="M199 296C197.655 300.55 196.477 309.545 199.028 313.852C201.538 318.089 213.301 318.334 216.397 314.681C219.726 310.753 218.403 300.834 218 296C211.498 300.215 218.777 310.335 210 313L209 296L207 296L206 313C197.912 310.545 203.156 301.486 199 296z"/>
<path style="fill:#a2b0c5; stroke:none;" d="M200 296L201 297L200 296z"/>
<path style="fill:#1b4172; stroke:none;" d="M201 296L202 297L201 296M203 296L204 297L203 296z"/>
<path style="fill:#a2b0c5; stroke:none;" d="M206 296L207 297L206 296z"/>
<path style="fill:#1393cb; stroke:none;" d="M209 296L210 297L209 296z"/>
<path style="fill:#1b4172; stroke:none;" d="M211 296L211 298L213 298L211 296z"/>
<path style="fill:#a2b0c5; stroke:none;" d="M215 296L216 297L215 296M220 296L221 297L220 296z"/>
<path style="fill:#f1f9fc; stroke:none;" d="M220 297L220 299L224 300L224 296L220 297z"/>
<path style="fill:#1393cb; stroke:none;" d="M226 296L227 297L226 296z"/>
<path style="fill:#f1f9fc; stroke:none;" d="M227 296L227 317L229 317L229 296L227 296z"/>
<path style="fill:#a2b0c5; stroke:none;" d="M229 296L230 297L229 296z"/>
<path style="fill:#1b4172; stroke:none;" d="M230 296C230 302.662 227.149 315.616 235 318L235 317L232 317C232 310.763 233.878 301.119 230 296z"/>
<path style="fill:#a2b0c5; stroke:none;" d="M232 296L233 297L232 296z"/>
<path style="fill:#f1f9fc; stroke:none;" d="M233 296L232 317L236 316L235 296L233 296z"/>
<path style="fill:#a2b0c5; stroke:none;" d="M238 296L237 316L238 316L238 296z"/>
<path style="fill:#f1f9fc; stroke:none;" d="M238 317L241 317L241 300C253.534 300.687 251.01 310.506 242 315C249.022 320.086 255.109 310.718 253.721 304.015C252.707 299.118 243.334 292.17 239.028 297.603C237.228 299.875 238 304.307 238 307L238 317z"/>
<path style="fill:#a2b0c5; stroke:none;" d="M247 296L248 297L247 296z"/>
<path style="fill:#1b4172; stroke:none;" d="M248 296L249 297L248 296M255 296L257 299L255 296M263 296L264 297L263 296M271 296L272 297L271 296z"/>
<path style="fill:#f1f9fc; stroke:none;" d="M274 296L274 317L277 317L276 296L274 296z"/>
<path style="fill:#a2b0c5; stroke:none;" d="M276 296L277 297L276 296M279 296L280 297L279 296z"/>
<path style="fill:#f1f9fc; stroke:none;" d="M279 297L279 299L284 300L284 317L287 317L287 300L292 296L279 297z"/>
<path style="fill:#1b4172; stroke:none;" d="M296 296L297 297L296 296M306.667 296.333L307.333 296.667L306.667 296.333z"/>
<path style="fill:#a2b0c5; stroke:none;" d="M141 297L142 298L141 297M158 297L159 298L158 297z"/>
<path style="fill:#1b4172; stroke:none;" d="M161 297L160 300L161 297z"/>
<path style="fill:#a2b0c5; stroke:none;" d="M166 297L166 300L167 300L166 297z"/>
<path style="fill:#1b4172; stroke:none;" d="M172 297L172 305L173 305L172 297M181.667 297.333L182.333 297.667L181.667 297.333M187.667 297.333L188.333 297.667L187.667 297.333z"/>
<path style="fill:#1393cb; stroke:none;" d="M201 297L202 298L201 297z"/>
<path style="fill:#1b4172; stroke:none;" d="M205 297L205 312L206 312L205 297z"/>
<path style="fill:#a2b0c5; stroke:none;" d="M209 297L210 298L209 297z"/>
<path style="fill:#1b4172; stroke:none;" d="M214 297L215 298L214 297z"/>
<path style="fill:#a2b0c5; stroke:none;" d="M218 297L218 300L219 300L218 297M224.333 297.667L224.667 298.333L224.333 297.667M235 297L236 298L235 297M249 297L251 299L249 297z"/>
<path style="fill:#1b4172; stroke:none;" d="M250 297L251 298L250 297M258 297L259 298L258 297M266 297L267 298L266 297M269 297L270 298L269 297z"/>
<path style="fill:#a2b0c5; stroke:none;" d="M273 297L273 316L274 316L273 297M292 297L293 298L292 297z"/>
<path style="fill:#1b4172; stroke:none;" d="M294 297L295 298L294 297M304 297L305 298L304 297M314.667 297.333L315.333 297.667L314.667 297.333M323 297L324 298L323 297M341 297L342 298L341 297z"/>
<path style="fill:#a2b0c5; stroke:none;" d="M140 298L141 299L140 298M159 298L160 299L159 298z"/>
<path style="fill:#1b4172; stroke:none;" d="M167 298L168 299L167 298M174 298L175 299L174 298M194 298L195 299L194 298z"/>
<path style="fill:#a2b0c5; stroke:none;" d="M201 298L201 312L202 312L201 298z"/>
<path style="fill:#1393cb; stroke:none;" d="M214 298L215 299L214 298z"/>
<path style="fill:#1b4172; stroke:none;" d="M251 298L253 300L253 298L251 298M263.667 298.333L264.333 298.667L263.667 298.333M271 298L272 299L271 298z"/>
<path style="fill:#1393cb; stroke:none;" d="M292 298L293 299L292 298z"/>
<path style="fill:#1b4172; stroke:none;" d="M309 298L309 299L312 299L309 298M139 299L140 300L139 299z"/>
<path style="fill:#011640; stroke:none;" d="M161 299C161 303.787 158.571 317.837 164 319L162 302C168.861 304.083 167.361 312.282 166 318L167 318L168 299L161 299z"/>
<path style="fill:#a2b0c5; stroke:none;" d="M162 299L165 301L165 300L162 299z"/>
<path style="fill:#1b4172; stroke:none;" d="M183 299L184 300L183 299M187.667 299.333L188.333 299.667L187.667 299.333M203.333 299.667L203.667 300.333L203.333 299.667M210.333 299.667L210.667 300.333L210.333 299.667M212 299L212 303L213 303L212 299M214 299L214 311L215 311L214 299z"/>
<path style="fill:#a2b0c5; stroke:none;" d="M220 299L223 301L223 300L220 299z"/>
<path style="fill:#1393cb; stroke:none;" d="M224 299L225 300L224 299z"/>
<path style="fill:#1b4172; stroke:none;" d="M225 299L224 303L225 299z"/>
<path style="fill:#a2b0c5; stroke:none;" d="M235.333 299.667L235.667 300.333L235.333 299.667z"/>
<path style="fill:#1b4172; stroke:none;" d="M254 299L255 300L254 299M261 299L259 300L259 301L261 299M266 299L267 300L266 299M279 299L280 300L279 299z"/>
<path style="fill:#a2b0c5; stroke:none;" d="M291 299L292 300L291 299z"/>
<path style="fill:#1b4172; stroke:none;" d="M292 299L293 300L292 299M334.667 299.333L335.333 299.667L334.667 299.333M341 299L342 300L341 299z"/>
<path style="fill:#a2b0c5; stroke:none;" d="M139 300L139 316L140 316L139 300z"/>
<path style="fill:#1b4172; stroke:none;" d="M144 300L145 301L144 300M146 300L148 302L146 300z"/>
<path style="fill:#a2b0c5; stroke:none;" d="M147 300L148 301L147 300M152 300L153 301L152 300M155 300L156 301L155 300z"/>
<path style="fill:#1393cb; stroke:none;" d="M160 300L161 301L160 300z"/>
<path style="fill:#1b4172; stroke:none;" d="M162 300L163 301L162 300M165 300L166 301L165 300M167.333 300.667L167.667 301.333L167.333 300.667M176 300L177 301L176 300M180 300L179 303L185 304L185 303L180 300M194 300L196 302L194 300M220 300L221 301L220 300M223 300L224 301L223 300z"/>
<path style="fill:#a2b0c5; stroke:none;" d="M241 300L242 317L243 317L246 314L246 313L242 314L241 300z"/>
<path style="fill:#011640; stroke:none;" d="M242 300L242 313C252.342 311.342 250.898 302.629 242 300z"/>
<path style="fill:#1b4172; stroke:none;" d="M243 300L243 301L246 301L243 300z"/>
<path style="fill:#a2b0c5; stroke:none;" d="M246 300L247 301L246 300M252 300L253 301L252 300z"/>
<path style="fill:#1b4172; stroke:none;" d="M255 300L254 304L255 304L257 302L256 305L257 305L259 304L255 300M263 300L263 302L265 302L265 300L263 300M268 300L269 301L268 300z"/>
<path style="fill:#1393cb; stroke:none;" d="M277 300L278 301L277 300z"/>
<path style="fill:#1b4172; stroke:none;" d="M281 300L282 301L281 300z"/>
<path style="fill:#a2b0c5; stroke:none;" d="M283 300L284 301L283 300M287 300L287 316L288 316L287 300z"/>
<path style="fill:#1b4172; stroke:none;" d="M289.667 300.333L290.333 300.667L289.667 300.333M304 300L304 301L309 302L309 306C305.02 307.209 302.939 310.328 307 313L307 312L310 300L304 300M314 300L314 301L315 303L326 306C323.151 301.381 319.035 300.952 314 300M351 300L352 301L351 300z"/>
<path style="fill:#a2b0c5; stroke:none;" d="M143 301L144 302L143 301z"/>
<path style="fill:#1b4172; stroke:none;" d="M152 301L152 317L153 317L152 301M154 301L155 302L154 301z"/>
<path style="fill:#a2b0c5; stroke:none;" d="M156 301L156 318L157 318L156 301M160 301L160 318L161 318L160 301z"/>
<path style="fill:#1b4172; stroke:none;" d="M177.667 301.333L178.333 301.667L177.667 301.333M183 301L184 302L183 301M188 301L188 302L191 302L188 301z"/>
<path style="fill:#a2b0c5; stroke:none;" d="M218 301L218 313L219 313L218 301z"/>
<path style="fill:#1b4172; stroke:none;" d="M247 301L248 302L247 301z"/>
<path style="fill:#a2b0c5; stroke:none;" d="M248 301L249 302L248 301M253 301L254 302L253 301z"/>
<path style="fill:#1b4172; stroke:none;" d="M277 301L277 315L278 315L277 301z"/>
<path style="fill:#1393cb; stroke:none;" d="M283 301L283 304L284 304L283 301z"/>
<path style="fill:#1b4172; stroke:none;" d="M294 301L295 302L294 301M311 301L311 303L313 301L311 301M329 303L329 304L340 303C336.137 300.69 333.017 301.309 329 303M342 301L342 302L349 305L342 301M143 302L143 312L144 312L143 302M145 302L146 303L145 302z"/>
<path style="fill:#a2b0c5; stroke:none;" d="M148 302L149 303L148 302z"/>
<path style="fill:#1b4172; stroke:none;" d="M162 302L163 303L162 302z"/>
<path style="fill:#a2b0c5; stroke:none;" d="M163 302L162 316L163 316L163 302z"/>
<path style="fill:#f1f9fc; stroke:none;" d="M164 302L163 317L166 317L164 302z"/>
<path style="fill:#a2b0c5; stroke:none;" d="M165 302L166 303L165 302M176 302L177 303L176 302z"/>
<path style="fill:#011640; stroke:none;" d="M180 302L181 308C182.588 305.318 182.124 304.199 180 302z"/>
<path style="fill:#1b4172; stroke:none;" d="M186 302L187 303L186 302z"/>
<path style="fill:#a2b0c5; stroke:none;" d="M187 302L188 303L187 302z"/>
<path style="fill:#f1f9fc; stroke:none;" d="M194 317L194 314C188.536 313.389 184.944 310.362 190 306L188 311C195.241 309.271 196.378 300.456 188.043 302.697C176.038 305.924 185.73 316.925 194 317z"/>
<path style="fill:#a2b0c5; stroke:none;" d="M192 302L193 303L192 302z"/>
<path style="fill:#1b4172; stroke:none;" d="M193 302L194 303L193 302M203.333 302.667L203.667 303.333L203.333 302.667M220 302L221 303L220 302z"/>
<path style="fill:#a2b0c5; stroke:none;" d="M221 302L220 316L221 316L221 302z"/>
<path style="fill:#f1f9fc; stroke:none;" d="M222 302L221 317L224 317L222 302z"/>
<path style="fill:#a2b0c5; stroke:none;" d="M223 302L224 303L223 302z"/>
<path style="fill:#1b4172; stroke:none;" d="M245 302L246 303L245 302z"/>
<path style="fill:#a2b0c5; stroke:none;" d="M249 302L250 303L249 302z"/>
<path style="fill:#011640; stroke:none;" d="M255 302L252 314L252 315L261 318C256.458 312.673 255.94 309.615 258 303L257 303L257 305L256 305L257 302L255 302z"/>
<path style="fill:#1b4172; stroke:none;" d="M260 302L261 303L260 302z"/>
<path style="fill:#a2b0c5; stroke:none;" d="M261 302L262 303L261 302z"/>
<path style="fill:#f1f9fc; stroke:none;" d="M262.019 302.786C253.1 305.766 257.776 320.033 266.891 316.254C274.482 313.107 270.063 300.099 262.019 302.786z"/>
<path style="fill:#a2b0c5; stroke:none;" d="M266 302L267 303L266 302z"/>
<path style="fill:#1b4172; stroke:none;" d="M267 302L268 303L267 302M269 303L269 304L271 305L272 305L271 302L269 303M281.333 302.667L281.667 303.333L281.333 302.667M289 302L290 303L289 302M299 302L300 303L299 302M302 302L300 307L301 307L304 302L302 302z"/>
<path style="fill:#1393cb; stroke:none;" d="M309 317C307.455 312.102 302.338 309.398 309 306L309 302C297.91 302.838 297.813 316.156 309 317M316.055 302.758C306.926 306.219 312.969 319.951 321.891 316.254C330.078 312.861 324.382 299.601 316.055 302.758M332 317C332.009 304.977 335.251 307.723 338 317L340 317L341 306C348.497 310.134 341.765 324.556 354 323L354 321C346.804 316.515 352.226 305.647 344.941 302.756C341.473 301.38 333.37 301.414 330.434 303.894C326.379 307.319 327.024 315.348 332 317z"/>
<path style="fill:#1b4172; stroke:none;" d="M166 303L167 304L166 303M175.333 303.667L175.667 304.333L175.333 303.667z"/>
<path style="fill:#a2b0c5; stroke:none;" d="M179 303L179 307L180 307L179 303M185 303L186 304L185 303z"/>
<path style="fill:#1393cb; stroke:none;" d="M194 303L195 304L194 303z"/>
<path style="fill:#a2b0c5; stroke:none;" d="M209 303L210 304L209 303z"/>
<path style="fill:#1393cb; stroke:none;" d="M224 303L224 316L225 316L224 303z"/>
<path style="fill:#1b4172; stroke:none;" d="M247 303L248 304L247 303M249 303L250 304L249 303z"/>
<path style="fill:#a2b0c5; stroke:none;" d="M259 303L260 304L259 303M268 303L269 304L268 303z"/>
<path style="fill:#011640; stroke:none;" d="M270.333 303.667L270.667 304.333L270.333 303.667z"/>
<path style="fill:#1b4172; stroke:none;" d="M293 303L294 304L293 303M295 303C295.513 305.475 295.604 305.575 298 305L298 304L295 303M313 303L314 304L313 303z"/>
<path style="fill:#a2b0c5; stroke:none;" d="M148 304L148 314L149 314L148 304z"/>
<path style="fill:#1393cb; stroke:none;" d="M166 304L166 313L167 313L166 304z"/>
<path style="fill:#a2b0c5; stroke:none;" d="M195.333 304.667L195.667 305.333L195.333 304.667z"/>
<path style="fill:#1b4172; stroke:none;" d="M212.333 304.667L212.667 305.333L212.333 304.667z"/>
<path style="fill:#a2b0c5; stroke:none;" d="M235 304L235 312L236 312L235 304M250 304L250 309L251 309L250 304M254 304L254 309L255 309L254 304M258 304L259 305L258 304M269 304L270 305L269 304z"/>
<path style="fill:#1b4172; stroke:none;" d="M283 304L283 313L284 313L283 304M311.667 304.333L312.333 304.667L311.667 304.333M350 304L351 305L350 304z"/>
<path style="fill:#a2b0c5; stroke:none;" d="M175 305L176 306L175 305M183 305L184 306L183 305M257 305L258 306L257 305M270 305L271 306L270 305z"/>
<path style="fill:#1b4172; stroke:none;" d="M328 305L329 306L328 305z"/>
<path style="fill:#a2b0c5; stroke:none;" d="M172 306L172 307L175 307L172 306z"/>
<path style="fill:#1b4172; stroke:none;" d="M182 306L183 307L182 306M188.667 306.333L189.333 306.667L188.667 306.333M203.333 306.667L203.667 307.333L203.333 306.667M256 306L257 307L256 306M261 307L262 313L265 309L265 308L262 308L262 307L265 307L261 307z"/>
<path style="fill:#a2b0c5; stroke:none;" d="M265 306L266 307L265 306z"/>
<path style="fill:#1b4172; stroke:none;" d="M271 306L272 307L271 306M311.333 306.667L311.667 307.333L311.333 306.667M318 313C317.099 309.816 317.114 308.705 320 307L320 308L318 308L318 309L322 309C318.536 304.177 312.977 309.323 318 313M327 306L327 316L328 316L327 306M333 306L333 307L336 307L333 306M341 306L341 316L342 316L344 307L341 306M349 306C349 310.745 347.6 317.147 352 320L349 306z"/>
<path style="fill:#a2b0c5; stroke:none;" d="M178 307L179 308L178 307z"/>
<path style="fill:#1b4172; stroke:none;" d="M180 307L181 308L180 307z"/>
<path style="fill:#a2b0c5; stroke:none;" d="M182.333 307.667L182.667 308.333L182.333 307.667z"/>
<path style="fill:#011640; stroke:none;" d="M187 307L187 309L189 307L187 307z"/>
<path style="fill:#1b4172; stroke:none;" d="M195 307L196 308L195 307M246.333 307.667L246.667 308.333L246.333 307.667z"/>
<path style="fill:#a2b0c5; stroke:none;" d="M256 307L256 312L257 312L256 307z"/>
<path style="fill:#011640; stroke:none;" d="M262 307L262 308L265 308L265 309L263 310L263 313C267.741 311.091 266.691 307.78 262 307z"/>
<path style="fill:#1b4172; stroke:none;" d="M266 307L267 308L266 307z"/>
<path style="fill:#a2b0c5; stroke:none;" d="M271 307L271 312L272 312L271 307z"/>
<path style="fill:#011640; stroke:none;" d="M321 308L319 309L318 309L318 308L320 308C313.242 306.472 321.153 316.538 321 308z"/>
<path style="fill:#1b4172; stroke:none;" d="M332 307L332 316L333 316L332 307M336 307L336 316L337 316L336 307M344 307L345 308L344 307M178 308L179 309L178 308M181 308L182 309L181 308M186 308L189 312L186 308z"/>
<path style="fill:#a2b0c5; stroke:none;" d="M188 308L189 309L188 308z"/>
<path style="fill:#1b4172; stroke:none;" d="M194 308L195 309L194 308M248 308L249 309L248 308z"/>
<path style="fill:#a2b0c5; stroke:none;" d="M260 308L261 309L260 308z"/>
<path style="fill:#011640; stroke:none;" d="M261 308L263 312L261 308z"/>
<path style="fill:#a2b0c5; stroke:none;" d="M267 308L267 311L268 311L267 308z"/>
<path style="fill:#1b4172; stroke:none;" d="M290 308L290 311L291 311L290 308M297.333 308.667L297.667 309.333L297.333 308.667M299 308L298 312C289.34 311.854 298.385 323.042 299.617 311.137C299.754 309.806 299.431 309.201 299 308M308 308L309 309L308 308M343 308L344 309L343 308z"/>
<path style="fill:#a2b0c5; stroke:none;" d="M178 309L179 310L178 309M192 309L191 311L192 309z"/>
<path style="fill:#1b4172; stroke:none;" d="M193 309L194 310L193 309M249 309L250 310L249 309M254.333 309.667L254.667 310.333L254.333 309.667z"/>
<path style="fill:#1393cb; stroke:none;" d="M260 309L261 310L260 309z"/>
<path style="fill:#1b4172; stroke:none;" d="M306.333 309.667L306.667 310.333L306.333 309.667M310.333 309.667L310.667 310.333L310.333 309.667z"/>
<path style="fill:#a2b0c5; stroke:none;" d="M179 310L180 311L179 310z"/>
<path style="fill:#1b4172; stroke:none;" d="M192 310L193 311L192 310z"/>
<path style="fill:#a2b0c5; stroke:none;" d="M249 310L250 311L249 310M260 310L261 311L260 310z"/>
<path style="fill:#1b4172; stroke:none;" d="M319 310L320 311L319 310M334.333 310.667L334.667 311.333L334.333 310.667z"/>
<path style="fill:#a2b0c5; stroke:none;" d="M172 311L172 312L175 312L172 311z"/>
<path style="fill:#1b4172; stroke:none;" d="M180 311L181 312L180 311z"/>
<path style="fill:#a2b0c5; stroke:none;" d="M182 311L183 312L182 311M186 311L188 313L186 311z"/>
<path style="fill:#011640; stroke:none;" d="M187 311L188 312L187 311z"/>
<path style="fill:#a2b0c5; stroke:none;" d="M189.667 311.333L190.333 311.667L189.667 311.333z"/>
<path style="fill:#1393cb; stroke:none;" d="M214 311L215 312L214 311z"/>
<path style="fill:#a2b0c5; stroke:none;" d="M248 311L249 312L248 311M253 311L254 312L253 311z"/>
<path style="fill:#1b4172; stroke:none;" d="M321 311L322 312L321 311z"/>
<path style="fill:#011640; stroke:none;" d="M327 311L328 312L327 311z"/>
<path style="fill:#1393cb; stroke:none;" d="M143 312L144 313L143 312z"/>
<path style="fill:#1b4172; stroke:none;" d="M172 312L172 316L173 316L172 312M175 312L176 313L175 312z"/>
<path style="fill:#a2b0c5; stroke:none;" d="M180 312L180 319L181 319L180 312z"/>
<path style="fill:#1393cb; stroke:none;" d="M182 312L183 313L182 312z"/>
<path style="fill:#1b4172; stroke:none;" d="M195 312L196 313L195 312M197.333 312.667L197.667 313.333L197.333 312.667M202 312L203 313L202 312z"/>
<path style="fill:#a2b0c5; stroke:none;" d="M205 312L206 313L205 312M210 312L211 313L210 312z"/>
<path style="fill:#1b4172; stroke:none;" d="M211 312L212 313L211 312M213 312L214 313L213 312M245.667 312.333L246.333 312.667L245.667 312.333z"/>
<path style="fill:#a2b0c5; stroke:none;" d="M247 312L248 313L247 312z"/>
<path style="fill:#1b4172; stroke:none;" d="M253 312L254 313L253 312M256 312L257 313L256 312z"/>
<path style="fill:#a2b0c5; stroke:none;" d="M261 312L262 313L261 312z"/>
<path style="fill:#1b4172; stroke:none;" d="M265 312L266 313L265 312z"/>
<path style="fill:#a2b0c5; stroke:none;" d="M266 312L267 313L266 312z"/>
<path style="fill:#1b4172; stroke:none;" d="M271 312L272 313L271 312M279 312L280 313L279 312M281 312L279 314L279 315L281 312M289 312L290 313L289 312z"/>
<path style="fill:#1393cb; stroke:none;" d="M295 312L295 317L297 317L297 312L295 312z"/>
<path style="fill:#1b4172; stroke:none;" d="M311 312L313 315L311 312M319.667 312.333L320.333 312.667L319.667 312.333M143 313L143 317L144 317L143 313M166 313L167 314L166 313M174 313L175 314L174 313z"/>
<path style="fill:#a2b0c5; stroke:none;" d="M176 313L176 319L177 319L176 313z"/>
<path style="fill:#1b4172; stroke:none;" d="M182 313L182 315L184 315L182 313z"/>
<path style="fill:#a2b0c5; stroke:none;" d="M189 313L189 314L194 314L189 313z"/>
<path style="fill:#1b4172; stroke:none;" d="M218 313L219 314L218 313z"/>
<path style="fill:#a2b0c5; stroke:none;" d="M235.333 313.667L235.667 314.333L235.333 313.667z"/>
<path style="fill:#1b4172; stroke:none;" d="M242 313L243 314L242 313M252 313L253 314L252 313M254 313L253 314L255 317L256 317L254 313z"/>
<path style="fill:#a2b0c5; stroke:none;" d="M257 313L258 314L257 313M263.667 313.333L264.333 313.667L263.667 313.333M270 313L271 314L270 313z"/>
<path style="fill:#1b4172; stroke:none;" d="M272 313L273 314L272 313z"/>
<path style="fill:#1393cb; stroke:none;" d="M283.333 313.667L283.667 314.333L283.333 313.667z"/>
<path style="fill:#1b4172; stroke:none;" d="M300 313L304 317L300 313M308 313L309 314L308 313M325.333 313.667L325.667 314.333L325.333 313.667M343 313L344 314L343 313z"/>
<path style="fill:#1393cb; stroke:none;" d="M166.333 314.667L166.667 315.333L166.333 314.667z"/>
<path style="fill:#1b4172; stroke:none;" d="M194 314L195 315L194 314M196 314L197 315L196 314z"/>
<path style="fill:#a2b0c5; stroke:none;" d="M198 314L199 315L198 314M217 314L216 316L217 314z"/>
<path style="fill:#1b4172; stroke:none;" d="M251 314L252 315L251 314M257 314L258 315L257 314M270 314L271 315L270 314M309 314L309 317L310 317L309 314M145 315L146 316L145 315z"/>
<path style="fill:#a2b0c5; stroke:none;" d="M148 315L149 316L148 315z"/>
<path style="fill:#1b4172; stroke:none;" d="M184 315L185 316L184 315z"/>
<path style="fill:#a2b0c5; stroke:none;" d="M194 315L195 316L194 315M199 315L200 316L199 315z"/>
<path style="fill:#1b4172; stroke:none;" d="M217.667 315.333L218.333 315.667L217.667 315.333z"/>
<path style="fill:#a2b0c5; stroke:none;" d="M249 315L247 316L247 317L249 315z"/>
<path style="fill:#1b4172; stroke:none;" d="M250 315L251 316L250 315M252 315L253 316L252 315M258 315L259 316L258 315M269 315L270 316L269 315M271 315L272 316L271 315z"/>
<path style="fill:#1393cb; stroke:none;" d="M277 315L278 316L277 315z"/>
<path style="fill:#1b4172; stroke:none;" d="M283.333 315.667L283.667 316.333L283.333 315.667M313 315L314 316L313 315M324 315L325 316L324 315M139 316L140 317L139 316z"/>
<path style="fill:#1393cb; stroke:none;" d="M148 316L149 317L148 316z"/>
<path style="fill:#a2b0c5; stroke:none;" d="M151 316L152 317L151 316z"/>
<path style="fill:#1b4172; stroke:none;" d="M162 316L163 317L162 316M166 316L167 317L166 316z"/>
<path style="fill:#a2b0c5; stroke:none;" d="M168 316L169 317L168 316M171 316L172 317L171 316z"/>
<path style="fill:#1b4172; stroke:none;" d="M183 316L184 317L183 316M185 316L186 317L185 316z"/>
<path style="fill:#a2b0c5; stroke:none;" d="M186 316L187 317L186 316z"/>
<path style="fill:#1b4172; stroke:none;" d="M194 316L194 317L197 317L194 316M200 316L201 317L200 316M207.667 316.333L208.333 316.667L207.667 316.333z"/>
<path style="fill:#a2b0c5; stroke:none;" d="M209 316L210 317L209 316z"/>
<path style="fill:#1393cb; stroke:none;" d="M215 316L216 317L215 316M220 316L221 317L220 316z"/>
<path style="fill:#1b4172; stroke:none;" d="M224 316L225 317L224 316z"/>
<path style="fill:#a2b0c5; stroke:none;" d="M226 316L227 317L226 316M229 316L230 317L229 316M235 316L236 317L235 316z"/>
<path style="fill:#1b4172; stroke:none;" d="M237 316L238 317L237 316M241 316L242 317L241 316M249 316L250 317L249 316M253 316L254 317L253 316M259 316L260 317L259 316z"/>
<path style="fill:#a2b0c5; stroke:none;" d="M260 316L261 317L260 316M267 316L268 317L267 316z"/>
<path style="fill:#1b4172; stroke:none;" d="M268 316L269 317L268 316M272 317L272 318L277 318L272 317M278 316L279 317L278 316M280 316L281 317L280 316z"/>
<path style="fill:#1393cb; stroke:none;" d="M287 316L288 317L287 316z"/>
<path style="fill:#1b4172; stroke:none;" d="M314.667 316.333L315.333 316.667L314.667 316.333M322.667 316.333L323.333 316.667L322.667 316.333M326 316L327 317L326 316M328 316L332 318L332 317L328 316M337 316C338.556 317.813 339.444 317.813 341 316L337 316M343 316L344 317L343 316M351 316L352 317L351 316M138 317L139 318L138 317M140 317L140 318L143 318L140 317M149.667 317.333L150.333 317.667L149.667 317.333M163 317L164 319L165 319L166 317L163 317M167 317L168 318L167 317M169.667 317.333L170.333 317.667L169.667 317.333M187 317L187 318L194 318L187 317M197 317L198 318L197 317M202 317L202 318L206 318L202 317M210 317L210 318L214 319L210 317M215 317L216 318L215 317M217 317L218 318L217 317M221 317L221 318L224 318L221 317M227.667 317.333L228.333 317.667L227.667 317.333M238 317L238 318L241 318L238 317M243 317L244 318L243 317z"/>
<path style="fill:#1393cb; stroke:none;" d="M244 317L245 318L244 317z"/>
<path style="fill:#1b4172; stroke:none;" d="M245.667 317.333L246.333 317.667L245.667 317.333M251.333 317.667L251.667 318.333L251.333 317.667M254 317L255 318L254 317M257 317L258 318L257 317M261 317L261 318L266 318L261 317M270 317L269 319L270 317M279 317L280 318L279 317M281 317L282 318L281 317M284 317L284 318L287 318L284 317M289 317L292 320L289 317M301 317L302 318L301 317M305 317L305 318L309 318L305 317M312 317L313 318L312 317M316 317L316 318L319 320L322 320L322 319L322 318L316 317M344 317L345 321L346 321L344 317M143 318L144 319L143 318M156.333 318.667L156.667 319.333L156.333 318.667M166 318L167 319L166 318M172 318L173 319L172 318M186 318L187 319L186 318M194 318L195 319L194 318M196 318L197 319L196 318M208 318L209 319L208 318M216 318L217 319L216 318M225 318L226 319L225 318M230 318L231 319L230 318M235.667 318.333L236.333 318.667L235.667 318.333M253 318L254 319L253 318M255.667 318.333L256.333 318.667L255.667 318.333M258 318L259 319L258 318M260 318L261 319L260 318M267 318L266 320L267 318M277 318L278 319L277 318M293 318L295 320L295 318L293 318M298 318L299 319L298 318M150 319L151 320L150 319z"/>
<path style="fill:#a2b0c5; stroke:none;" d="M161 319L162 320L161 319z"/>
<path style="fill:#1b4172; stroke:none;" d="M162.667 319.333L163.333 319.667L162.667 319.333M176 319L177 320L176 319z"/>
<path style="fill:#a2b0c5; stroke:none;" d="M181 319L182 320L181 319z"/>
<path style="fill:#1b4172; stroke:none;" d="M182.667 319.333L183.333 319.667L182.667 319.333M205 319L206 320L205 319M221.667 319.333L222.333 319.667L221.667 319.333M233.667 319.333L234.333 319.667L233.667 319.333M241 319L242 320L241 319M248 319L249 320L248 319M250 319L251 320L250 319M252 319L253 320L252 319M259 319L260 320L259 319M261 319L262 320L261 319M271.667 319.333L272.333 319.667L271.667 319.333M274 319L275 320L274 319M307 319L308 320L307 319M310 319L311 320L310 319z"/>
<path style="fill:#a2b0c5; stroke:none;" d="M157 320L158 321L157 320M164 320L165 321L164 320M177 320L178 321L177 320M184 320L185 321L184 320z"/>
<path style="fill:#1b4172; stroke:none;" d="M188 320L189 321L188 320M353 320L354 321L353 320M157 321L158 322L157 321M165.333 321.667L165.667 322.333L165.333 321.667M177 321L176 322L179 325L180 324L177 321M185.333 321.667L185.667 322.333L185.333 321.667M346 321L346 323L348 323L346 321M354.333 321.667L354.667 322.333L354.333 321.667M158 322L160 324L158 322z"/>
<path style="fill:#a2b0c5; stroke:none;" d="M159 322L160 323L159 322z"/>
<path style="fill:#011640; stroke:none;" d="M177 322L179 324L177 322z"/>
<path style="fill:#1b4172; stroke:none;" d="M190 322L191 323L190 322M155 323L156 324L155 323z"/>
<path style="fill:#a2b0c5; stroke:none;" d="M160.667 323.333L161.333 323.667L160.667 323.333M164 323L165 324L164 323M180.667 323.333L181.333 323.667L180.667 323.333z"/>
<path style="fill:#1b4172; stroke:none;" d="M184 323L185 324L184 323M348.667 323.333L349.333 323.667L348.667 323.333M351 325L354 323L351 325M158 324L159 325L158 324M166 324L167 325L166 324M186 324L187 325L186 324M154 325L156 327L154 325M180 326L182 328L180 326z"/>
</svg>
