<?xml version="1.0" standalone="no"?>
<!DOCTYPE svg PUBLIC "-//W3C//DTD SVG 20010904//EN"
 "http://www.w3.org/TR/2001/REC-SVG-20010904/DTD/svg10.dtd">
<svg version="1.0" xmlns="http://www.w3.org/2000/svg"
 width="250.000000pt" height="158.000000pt" viewBox="0 0 250.000000 158.000000"
 preserveAspectRatio="xMidYMid meet">

<g transform="translate(0.000000,158.000000) scale(0.100000,-0.100000)"
fill="#000000" stroke="none">
<path d="M0 1015 l0 -565 1250 0 1250 0 0 565 0 565 -1250 0 -1250 0 0 -565z"/>
<path d="M0 220 l0 -220 1250 0 1250 0 0 220 0 220 -1250 0 -1250 0 0 -220z
m361 111 c17 -3 29 -61 29 -136 0 -75 2 -84 20 -90 25 -8 26 -35 2 -35 -10 0
-27 6 -38 14 -16 12 -20 30 -24 113 -4 83 -8 98 -22 101 -16 3 -18 -5 -18 -70
0 -129 -37 -136 -42 -8 -3 67 -5 75 -23 75 -18 0 -21 -8 -25 -80 -4 -62 -8
-80 -20 -80 -12 0 -16 17 -18 82 -4 109 7 121 104 118 38 -2 72 -3 75 -4z m87
-8 c5 -17 -26 -29 -40 -15 -6 6 -7 15 -3 22 9 14 37 9 43 -7z m50 -42 c3 -55
18 -64 37 -23 16 36 36 27 35 -15 -1 -70 11 -124 31 -136 24 -15 25 -37 1 -37
-31 0 -50 23 -59 70 -10 53 -40 69 -45 23 -2 -17 -9 -28 -18 -28 -12 0 -16 18
-18 89 -3 97 1 120 21 114 7 -3 13 -26 15 -57z m292 -27 c4 -64 8 -79 22 -82
15 -3 18 8 20 80 2 66 6 83 18 83 12 0 16 -18 20 -80 4 -72 7 -80 25 -80 18 0
20 8 23 83 2 63 6 82 17 82 20 0 28 -40 23 -112 -4 -49 -9 -65 -28 -80 -15
-12 -31 -17 -44 -13 -25 8 -33 8 -68 -1 -19 -4 -32 0 -47 15 -18 18 -21 33
-21 99 0 43 3 82 7 86 18 18 28 -7 33 -80z m220 66 c0 -13 -7 -20 -20 -20 -19
0 -27 20 -13 33 13 14 33 6 33 -13z m58 -76 c2 -89 -6 -123 -27 -110 -12 8
-16 188 -4 200 19 19 28 -8 31 -90z m47 -10 c0 -81 -3 -99 -15 -99 -12 0 -16
18 -18 89 -3 97 1 120 21 113 8 -2 12 -32 12 -103z m155 81 c33 -29 43 -78 26
-118 -18 -43 -60 -67 -112 -64 l-39 3 -3 89 c-2 48 0 95 3 103 7 20 99 11 125
-13z m255 -81 c0 -81 -3 -99 -15 -99 -12 0 -16 18 -18 89 -3 97 1 120 21 113
8 -2 12 -32 12 -103z m145 86 c0 -13 -7 -20 -20 -20 -17 0 -19 -8 -22 -82 -2
-66 -6 -83 -18 -83 -12 0 -16 17 -18 81 -2 72 -5 83 -22 87 -11 3 -20 12 -20
21 0 13 12 16 60 16 53 0 60 -2 60 -20z m-1232 -112 c-2 -40 -7 -73 -13 -73
-5 0 -11 33 -13 73 -2 60 0 72 13 72 13 0 15 -12 13 -72z m273 62 c10 -6 19
-16 19 -22 0 -16 -41 -58 -57 -58 -16 0 -17 22 0 39 10 10 8 12 -8 9 -15 -2
-20 -11 -20 -33 0 -27 4 -31 35 -35 46 -7 48 -34 3 -38 -24 -2 -39 3 -58 22
-32 32 -32 70 0 101 26 27 54 31 86 15z m297 -62 c-2 -57 -6 -73 -18 -73 -11
0 -16 15 -18 59 -4 68 1 86 23 86 13 0 15 -12 13 -72z m436 51 c19 -15 26 -30
26 -54 0 -24 -7 -39 -26 -54 -31 -24 -43 -26 -78 -10 -35 16 -50 63 -31 99 23
45 66 53 109 19z"/>
<path d="M1180 231 l0 -70 31 9 c57 17 77 72 39 110 -11 11 -31 20 -45 20 -24
0 -25 -2 -25 -69z"/>
<path d="M1370 225 c-18 -22 -1 -50 31 -50 20 0 24 5 24 30 0 23 -5 31 -21 33
-11 2 -27 -4 -34 -13z"/>
</g>
</svg>
